<?xml version="1.0" standalone="no"?><!DOCTYPE svg PUBLIC "-//W3C//DTD SVG 1.1//EN" "http://www.w3.org/Graphics/SVG/1.1/DTD/svg11.dtd"><svg t="1530062337220" class="icon" style="" viewBox="0 0 1024 1024" version="1.1" xmlns="http://www.w3.org/2000/svg" p-id="3355" xmlns:xlink="http://www.w3.org/1999/xlink" width="200" height="200"><defs><style type="text/css"></style></defs><path d="M955.297 135.987a107.096 107.096 0 0 0-14.321-28.224c-6.194-8.714-13.79-16.025-22.769-21.917C909.21 79.936 899.094 77 887.861 77c-24.171 0-47.072 5.342-68.705 16.007-21.632 10.684-40.026 25.857-55.218 45.519-6.175 7.88-14.321 19.265-24.436 34.135-10.115 14.908-21.064 31.483-32.884 49.743a8155.053 8155.053 0 0 0-36.654 57.32 7126.679 7126.679 0 0 0-36.256 57.737c-11.517 18.545-22.049 35.555-31.615 50.994-9.547 15.476-17.143 27.391-22.75 35.839a70771.096 70771.096 0 0 1-57.32 91.872c-19.681 31.483-39.06 61.412-58.173 89.769-19.094 28.395-37.222 53.532-54.365 75.448-17.143 21.917-32.449 38.226-45.936 48.891-1.686-3.921-7.16-17.977-16.442-42.147-9.263-24.152-21.216-52.812-35.82-85.981A12142.158 12142.158 0 0 0 276.3 519.12c-12.085-28.376-23.053-56.904-32.865-85.564-9.85-28.66-17.996-56.904-24.455-84.711-6.459-27.827-9.68-54.934-9.68-81.359 0-8.411 0.966-17.124 2.936-26.122 1.97-8.979 4.073-18.128 6.327-27.391a1131.693 1131.693 0 0 0 6.327-27.827c1.951-9.263 2.936-17.825 2.936-25.705 0-24.152-5.039-40.878-15.154-50.16-10.115-9.263-26.974-13.904-50.577-13.904-15.741 0-29.664 4.641-41.731 13.904-12.104 9.282-22.068 20.951-29.929 34.987-7.88 14.055-13.904 29.513-18.128 46.372-4.205 16.859-6.327 32.865-6.327 48.039 0 21.367 1.97 45.102 5.91 71.224 3.921 26.141 9.831 53.949 17.692 83.461 7.88 29.494 17.711 60.275 29.513 92.288 11.801 32.051 25.573 64.367 41.295 96.948 15.741 33.169 29.797 63.363 42.166 90.622 12.351 27.258 22.75 52.679 31.18 76.282 8.43 23.603 14.889 45.803 19.397 66.583 4.489 20.799 6.744 40.746 6.744 59.859 0 4.489-0.303 9.396-0.852 14.756-0.568 5.323-1.402 11.385-2.519 18.128 24.72 33.15 48.872 49.724 72.474 49.724 5.077 0 12.502-2.822 22.352-8.429 9.812-5.626 20.932-13.904 33.301-24.872 12.351-10.949 24.853-24.171 37.506-39.609 12.635-15.476 24.019-33.017 34.135-52.698 32.032-61.81 67.019-124.188 104.942-187.115 37.942-62.946 76.566-121.1 115.91-174.5 13.487-17.408 27.675-35.536 42.564-54.365s30.214-37.639 45.955-56.487a2273.854 2273.854 0 0 1 48.039-55.634c16.291-18.242 32.581-35.536 48.891-51.846 9.547-10.115 20.079-17.825 31.615-23.167 11.498-5.342 22.182-10.816 32.032-16.442 9.812-5.607 17.977-12.085 24.436-19.378 6.459-7.312 9.699-17.711 9.699-31.199-0.002-8.428-1.688-17.71-5.06-27.826z" p-id="3356"></path></svg>